<mxfile host="app.diagrams.net" agent="Mozilla/5.0 (Windows NT 10.0; Win64; x64) AppleWebKit/537.36 (KHTML, like Gecko) Chrome/137.0.0.0 Safari/537.36 Edg/137.0.0.0" version="27.1.1">
  <diagram name="Kirchner Filter Comparison" id="GDeSpgq0L0BHHC1OFVLU">
    <mxGraphModel dx="2058" dy="1146" grid="1" gridSize="10" guides="1" tooltips="1" connect="1" arrows="1" fold="1" page="1" pageScale="1" pageWidth="850" pageHeight="1100" math="0" shadow="0">
      <root>
        <mxCell id="0" />
        <mxCell id="1" parent="0" />
        <mxCell id="jRZZL-ALYdKYucV2etd6-269" value="" style="group" vertex="1" connectable="0" parent="1">
          <mxGeometry x="50" y="80" width="1350" height="950" as="geometry" />
        </mxCell>
        <mxCell id="jRZZL-ALYdKYucV2etd6-137" value="NATURAL IMAGE (&quot;Random&quot; Werte)" style="text;html=1;strokeColor=none;fillColor=#e1d5e7;align=center;verticalAlign=middle;whiteSpace=wrap;rounded=1;fontSize=14;fontStyle=1;strokeWidth=2;" vertex="1" parent="jRZZL-ALYdKYucV2etd6-269">
          <mxGeometry width="547.2972972972973" height="55.882352941176464" as="geometry" />
        </mxCell>
        <mxCell id="jRZZL-ALYdKYucV2etd6-138" value="142" style="rounded=0;whiteSpace=wrap;html=1;fillColor=#f8cecc;strokeColor=#b85450;" vertex="1" parent="jRZZL-ALYdKYucV2etd6-269">
          <mxGeometry y="93.13725490196079" width="72.97297297297298" height="55.882352941176464" as="geometry" />
        </mxCell>
        <mxCell id="jRZZL-ALYdKYucV2etd6-139" value="89" style="rounded=0;whiteSpace=wrap;html=1;fillColor=#f8cecc;strokeColor=#b85450;" vertex="1" parent="jRZZL-ALYdKYucV2etd6-269">
          <mxGeometry x="72.97297297297298" y="93.13725490196079" width="72.97297297297298" height="55.882352941176464" as="geometry" />
        </mxCell>
        <mxCell id="jRZZL-ALYdKYucV2etd6-140" value="167" style="rounded=0;whiteSpace=wrap;html=1;fillColor=#f8cecc;strokeColor=#b85450;" vertex="1" parent="jRZZL-ALYdKYucV2etd6-269">
          <mxGeometry x="145.94594594594597" y="93.13725490196079" width="72.97297297297298" height="55.882352941176464" as="geometry" />
        </mxCell>
        <mxCell id="jRZZL-ALYdKYucV2etd6-141" value="103" style="rounded=0;whiteSpace=wrap;html=1;fillColor=#f8cecc;strokeColor=#b85450;" vertex="1" parent="jRZZL-ALYdKYucV2etd6-269">
          <mxGeometry x="218.91891891891893" y="93.13725490196079" width="72.97297297297298" height="55.882352941176464" as="geometry" />
        </mxCell>
        <mxCell id="jRZZL-ALYdKYucV2etd6-142" value="156" style="rounded=0;whiteSpace=wrap;html=1;fillColor=#f8cecc;strokeColor=#b85450;" vertex="1" parent="jRZZL-ALYdKYucV2etd6-269">
          <mxGeometry x="291.89189189189193" y="93.13725490196079" width="72.97297297297298" height="55.882352941176464" as="geometry" />
        </mxCell>
        <mxCell id="jRZZL-ALYdKYucV2etd6-143" value="91" style="rounded=0;whiteSpace=wrap;html=1;fillColor=#f8cecc;strokeColor=#b85450;" vertex="1" parent="jRZZL-ALYdKYucV2etd6-269">
          <mxGeometry x="364.86486486486484" y="93.13725490196079" width="72.97297297297298" height="55.882352941176464" as="geometry" />
        </mxCell>
        <mxCell id="jRZZL-ALYdKYucV2etd6-144" value="178" style="rounded=0;whiteSpace=wrap;html=1;fillColor=#f8cecc;strokeColor=#b85450;align=center;verticalAlign=middle;fontFamily=Helvetica;fontSize=12;fontColor=default;" vertex="1" parent="jRZZL-ALYdKYucV2etd6-269">
          <mxGeometry y="149.01960784313724" width="72.97297297297298" height="55.882352941176464" as="geometry" />
        </mxCell>
        <mxCell id="jRZZL-ALYdKYucV2etd6-145" value="125" style="rounded=0;whiteSpace=wrap;html=1;fillColor=#ffffff;strokeColor=#000000;fontStyle=1;" vertex="1" parent="jRZZL-ALYdKYucV2etd6-269">
          <mxGeometry x="72.97297297297298" y="149.01960784313724" width="72.97297297297298" height="55.882352941176464" as="geometry" />
        </mxCell>
        <mxCell id="jRZZL-ALYdKYucV2etd6-146" value="84" style="rounded=0;whiteSpace=wrap;html=1;fillColor=#ffffff;strokeColor=#000000;fontStyle=1;" vertex="1" parent="jRZZL-ALYdKYucV2etd6-269">
          <mxGeometry x="145.94594594594597" y="149.01960784313724" width="72.97297297297298" height="55.882352941176464" as="geometry" />
        </mxCell>
        <mxCell id="jRZZL-ALYdKYucV2etd6-147" value="172" style="rounded=0;whiteSpace=wrap;html=1;fillColor=#ffffff;strokeColor=#000000;fontStyle=1;" vertex="1" parent="jRZZL-ALYdKYucV2etd6-269">
          <mxGeometry x="218.91891891891893" y="149.01960784313724" width="72.97297297297298" height="55.882352941176464" as="geometry" />
        </mxCell>
        <mxCell id="jRZZL-ALYdKYucV2etd6-148" value="96" style="rounded=0;whiteSpace=wrap;html=1;fillColor=#ffffff;strokeColor=#000000;fontStyle=1;" vertex="1" parent="jRZZL-ALYdKYucV2etd6-269">
          <mxGeometry x="291.89189189189193" y="149.01960784313724" width="72.97297297297298" height="55.882352941176464" as="geometry" />
        </mxCell>
        <mxCell id="jRZZL-ALYdKYucV2etd6-149" value="138" style="rounded=0;whiteSpace=wrap;html=1;fillColor=#f8cecc;strokeColor=#b85450;align=center;verticalAlign=middle;fontFamily=Helvetica;fontSize=12;fontColor=default;" vertex="1" parent="jRZZL-ALYdKYucV2etd6-269">
          <mxGeometry x="364.86486486486484" y="149.01960784313724" width="72.97297297297298" height="55.882352941176464" as="geometry" />
        </mxCell>
        <mxCell id="jRZZL-ALYdKYucV2etd6-150" value="161" style="rounded=0;whiteSpace=wrap;html=1;fillColor=#f8cecc;strokeColor=#b85450;align=center;verticalAlign=middle;fontFamily=Helvetica;fontSize=12;fontColor=default;" vertex="1" parent="jRZZL-ALYdKYucV2etd6-269">
          <mxGeometry y="204.9019607843137" width="72.97297297297298" height="55.882352941176464" as="geometry" />
        </mxCell>
        <mxCell id="jRZZL-ALYdKYucV2etd6-151" value="112" style="rounded=0;whiteSpace=wrap;html=1;fillColor=#ffffff;strokeColor=#000000;fontStyle=1;" vertex="1" parent="jRZZL-ALYdKYucV2etd6-269">
          <mxGeometry x="72.97297297297298" y="204.9019607843137" width="72.97297297297298" height="55.882352941176464" as="geometry" />
        </mxCell>
        <mxCell id="jRZZL-ALYdKYucV2etd6-152" value="189" style="rounded=0;whiteSpace=wrap;html=1;fillColor=#ffffff;strokeColor=#000000;fontStyle=1;" vertex="1" parent="jRZZL-ALYdKYucV2etd6-269">
          <mxGeometry x="145.94594594594597" y="204.9019607843137" width="72.97297297297298" height="55.882352941176464" as="geometry" />
        </mxCell>
        <mxCell id="jRZZL-ALYdKYucV2etd6-153" value="77" style="rounded=0;whiteSpace=wrap;html=1;fillColor=#ffffff;strokeColor=#000000;fontStyle=1;" vertex="1" parent="jRZZL-ALYdKYucV2etd6-269">
          <mxGeometry x="218.91891891891893" y="204.9019607843137" width="72.97297297297298" height="55.882352941176464" as="geometry" />
        </mxCell>
        <mxCell id="jRZZL-ALYdKYucV2etd6-154" value="145" style="rounded=0;whiteSpace=wrap;html=1;fillColor=#ffffff;strokeColor=#000000;fontStyle=1;" vertex="1" parent="jRZZL-ALYdKYucV2etd6-269">
          <mxGeometry x="291.89189189189193" y="204.9019607843137" width="72.97297297297298" height="55.882352941176464" as="geometry" />
        </mxCell>
        <mxCell id="jRZZL-ALYdKYucV2etd6-155" value="168" style="rounded=0;whiteSpace=wrap;html=1;fillColor=#f8cecc;strokeColor=#b85450;align=center;verticalAlign=middle;fontFamily=Helvetica;fontSize=12;fontColor=default;" vertex="1" parent="jRZZL-ALYdKYucV2etd6-269">
          <mxGeometry x="364.86486486486484" y="204.9019607843137" width="72.97297297297298" height="55.882352941176464" as="geometry" />
        </mxCell>
        <mxCell id="jRZZL-ALYdKYucV2etd6-156" value="94" style="rounded=0;whiteSpace=wrap;html=1;fillColor=#f8cecc;strokeColor=#b85450;align=center;verticalAlign=middle;fontFamily=Helvetica;fontSize=12;fontColor=default;" vertex="1" parent="jRZZL-ALYdKYucV2etd6-269">
          <mxGeometry y="260.78431372549016" width="72.97297297297298" height="55.882352941176464" as="geometry" />
        </mxCell>
        <mxCell id="jRZZL-ALYdKYucV2etd6-157" value="159" style="rounded=0;whiteSpace=wrap;html=1;fillColor=#ffffff;strokeColor=#000000;fontStyle=1;" vertex="1" parent="jRZZL-ALYdKYucV2etd6-269">
          <mxGeometry x="72.97297297297298" y="260.78431372549016" width="72.97297297297298" height="55.882352941176464" as="geometry" />
        </mxCell>
        <mxCell id="jRZZL-ALYdKYucV2etd6-158" value="123" style="rounded=0;whiteSpace=wrap;html=1;fillColor=#ffffff;strokeColor=#000000;fontStyle=1;" vertex="1" parent="jRZZL-ALYdKYucV2etd6-269">
          <mxGeometry x="145.94594594594597" y="260.78431372549016" width="72.97297297297298" height="55.882352941176464" as="geometry" />
        </mxCell>
        <mxCell id="jRZZL-ALYdKYucV2etd6-159" value="188" style="rounded=0;whiteSpace=wrap;html=1;fillColor=#ffffff;strokeColor=#000000;fontStyle=1;" vertex="1" parent="jRZZL-ALYdKYucV2etd6-269">
          <mxGeometry x="218.91891891891893" y="260.78431372549016" width="72.97297297297298" height="55.882352941176464" as="geometry" />
        </mxCell>
        <mxCell id="jRZZL-ALYdKYucV2etd6-160" value="81" style="rounded=0;whiteSpace=wrap;html=1;fillColor=#ffffff;strokeColor=#000000;fontStyle=1;" vertex="1" parent="jRZZL-ALYdKYucV2etd6-269">
          <mxGeometry x="291.89189189189193" y="260.78431372549016" width="72.97297297297298" height="55.882352941176464" as="geometry" />
        </mxCell>
        <mxCell id="jRZZL-ALYdKYucV2etd6-161" value="147" style="rounded=0;whiteSpace=wrap;html=1;fillColor=#f8cecc;strokeColor=#b85450;align=center;verticalAlign=middle;fontFamily=Helvetica;fontSize=12;fontColor=default;" vertex="1" parent="jRZZL-ALYdKYucV2etd6-269">
          <mxGeometry x="364.86486486486484" y="260.78431372549016" width="72.97297297297298" height="55.882352941176464" as="geometry" />
        </mxCell>
        <mxCell id="jRZZL-ALYdKYucV2etd6-162" value="175" style="rounded=0;whiteSpace=wrap;html=1;fillColor=#f8cecc;strokeColor=#b85450;align=center;verticalAlign=middle;fontFamily=Helvetica;fontSize=12;fontColor=default;" vertex="1" parent="jRZZL-ALYdKYucV2etd6-269">
          <mxGeometry y="316.6666666666667" width="72.97297297297298" height="55.882352941176464" as="geometry" />
        </mxCell>
        <mxCell id="jRZZL-ALYdKYucV2etd6-163" value="106" style="rounded=0;whiteSpace=wrap;html=1;fillColor=#ffffff;strokeColor=#000000;fontStyle=1;" vertex="1" parent="jRZZL-ALYdKYucV2etd6-269">
          <mxGeometry x="72.97297297297298" y="316.6666666666667" width="72.97297297297298" height="55.882352941176464" as="geometry" />
        </mxCell>
        <mxCell id="jRZZL-ALYdKYucV2etd6-164" value="134" style="rounded=0;whiteSpace=wrap;html=1;fillColor=#ffffff;strokeColor=#000000;fontStyle=1;" vertex="1" parent="jRZZL-ALYdKYucV2etd6-269">
          <mxGeometry x="145.94594594594597" y="316.6666666666667" width="72.97297297297298" height="55.882352941176464" as="geometry" />
        </mxCell>
        <mxCell id="jRZZL-ALYdKYucV2etd6-165" value="162" style="rounded=0;whiteSpace=wrap;html=1;fillColor=#ffffff;strokeColor=#000000;fontStyle=1;" vertex="1" parent="jRZZL-ALYdKYucV2etd6-269">
          <mxGeometry x="218.91891891891893" y="316.6666666666667" width="72.97297297297298" height="55.882352941176464" as="geometry" />
        </mxCell>
        <mxCell id="jRZZL-ALYdKYucV2etd6-166" value="98" style="rounded=0;whiteSpace=wrap;html=1;fillColor=#ffffff;strokeColor=#000000;fontStyle=1;" vertex="1" parent="jRZZL-ALYdKYucV2etd6-269">
          <mxGeometry x="291.89189189189193" y="316.6666666666667" width="72.97297297297298" height="55.882352941176464" as="geometry" />
        </mxCell>
        <mxCell id="jRZZL-ALYdKYucV2etd6-167" value="181" style="rounded=0;whiteSpace=wrap;html=1;fillColor=#f8cecc;strokeColor=#b85450;align=center;verticalAlign=middle;fontFamily=Helvetica;fontSize=12;fontColor=default;" vertex="1" parent="jRZZL-ALYdKYucV2etd6-269">
          <mxGeometry x="364.86486486486484" y="316.6666666666667" width="72.97297297297298" height="55.882352941176464" as="geometry" />
        </mxCell>
        <mxCell id="jRZZL-ALYdKYucV2etd6-168" value="119" style="rounded=0;whiteSpace=wrap;html=1;fillColor=#f8cecc;strokeColor=#b85450;" vertex="1" parent="jRZZL-ALYdKYucV2etd6-269">
          <mxGeometry y="372.54901960784315" width="72.97297297297298" height="55.882352941176464" as="geometry" />
        </mxCell>
        <mxCell id="jRZZL-ALYdKYucV2etd6-169" value="153" style="rounded=0;whiteSpace=wrap;html=1;fillColor=#f8cecc;strokeColor=#b85450;" vertex="1" parent="jRZZL-ALYdKYucV2etd6-269">
          <mxGeometry x="72.97297297297298" y="372.54901960784315" width="72.97297297297298" height="55.882352941176464" as="geometry" />
        </mxCell>
        <mxCell id="jRZZL-ALYdKYucV2etd6-170" value="87" style="rounded=0;whiteSpace=wrap;html=1;fillColor=#f8cecc;strokeColor=#b85450;" vertex="1" parent="jRZZL-ALYdKYucV2etd6-269">
          <mxGeometry x="145.94594594594597" y="372.54901960784315" width="72.97297297297298" height="55.882352941176464" as="geometry" />
        </mxCell>
        <mxCell id="jRZZL-ALYdKYucV2etd6-171" value="174" style="rounded=0;whiteSpace=wrap;html=1;fillColor=#f8cecc;strokeColor=#b85450;" vertex="1" parent="jRZZL-ALYdKYucV2etd6-269">
          <mxGeometry x="218.91891891891893" y="372.54901960784315" width="72.97297297297298" height="55.882352941176464" as="geometry" />
        </mxCell>
        <mxCell id="jRZZL-ALYdKYucV2etd6-172" value="129" style="rounded=0;whiteSpace=wrap;html=1;fillColor=#f8cecc;strokeColor=#b85450;" vertex="1" parent="jRZZL-ALYdKYucV2etd6-269">
          <mxGeometry x="291.89189189189193" y="372.54901960784315" width="72.97297297297298" height="55.882352941176464" as="geometry" />
        </mxCell>
        <mxCell id="jRZZL-ALYdKYucV2etd6-173" value="196" style="rounded=0;whiteSpace=wrap;html=1;fillColor=#f8cecc;strokeColor=#b85450;" vertex="1" parent="jRZZL-ALYdKYucV2etd6-269">
          <mxGeometry x="364.86486486486484" y="372.54901960784315" width="72.97297297297298" height="55.882352941176464" as="geometry" />
        </mxCell>
        <mxCell id="jRZZL-ALYdKYucV2etd6-174" value="Kirchner Filter" style="text;html=1;strokeColor=none;fillColor=none;align=center;verticalAlign=middle;whiteSpace=wrap;rounded=0;fontSize=12;fontStyle=1;" vertex="1" parent="jRZZL-ALYdKYucV2etd6-269">
          <mxGeometry x="547.2972972972973" y="135.04901960784312" width="182.43243243243242" height="37.25490196078431" as="geometry" />
        </mxCell>
        <mxCell id="jRZZL-ALYdKYucV2etd6-175" value="-0.25" style="rounded=0;whiteSpace=wrap;html=1;fillColor=#e1d5e7;strokeColor=#9673a6;" vertex="1" parent="jRZZL-ALYdKYucV2etd6-269">
          <mxGeometry x="547.2972972972973" y="190.9313725490196" width="82.09459459459458" height="46.568627450980394" as="geometry" />
        </mxCell>
        <mxCell id="jRZZL-ALYdKYucV2etd6-176" value="0.5" style="rounded=0;whiteSpace=wrap;html=1;fillColor=#d5e8d4;strokeColor=#82b366;" vertex="1" parent="jRZZL-ALYdKYucV2etd6-269">
          <mxGeometry x="629.391891891892" y="190.9313725490196" width="82.09459459459458" height="46.568627450980394" as="geometry" />
        </mxCell>
        <mxCell id="jRZZL-ALYdKYucV2etd6-177" value="-0.25" style="rounded=0;whiteSpace=wrap;html=1;fillColor=#e1d5e7;strokeColor=#9673a6;" vertex="1" parent="jRZZL-ALYdKYucV2etd6-269">
          <mxGeometry x="711.4864864864865" y="190.9313725490196" width="82.09459459459458" height="46.568627450980394" as="geometry" />
        </mxCell>
        <mxCell id="jRZZL-ALYdKYucV2etd6-178" value="0.5" style="rounded=0;whiteSpace=wrap;html=1;fillColor=#d5e8d4;strokeColor=#82b366;" vertex="1" parent="jRZZL-ALYdKYucV2etd6-269">
          <mxGeometry x="547.2972972972973" y="237.5" width="82.09459459459458" height="46.568627450980394" as="geometry" />
        </mxCell>
        <mxCell id="jRZZL-ALYdKYucV2etd6-179" value="0" style="rounded=0;whiteSpace=wrap;html=1;fillColor=#f8cecc;strokeColor=#b85450;fontStyle=1;" vertex="1" parent="jRZZL-ALYdKYucV2etd6-269">
          <mxGeometry x="629.391891891892" y="237.5" width="82.09459459459458" height="46.568627450980394" as="geometry" />
        </mxCell>
        <mxCell id="jRZZL-ALYdKYucV2etd6-180" value="0.5" style="rounded=0;whiteSpace=wrap;html=1;fillColor=#d5e8d4;strokeColor=#82b366;" vertex="1" parent="jRZZL-ALYdKYucV2etd6-269">
          <mxGeometry x="711.4864864864865" y="237.5" width="82.09459459459458" height="46.568627450980394" as="geometry" />
        </mxCell>
        <mxCell id="jRZZL-ALYdKYucV2etd6-181" value="-0.25" style="rounded=0;whiteSpace=wrap;html=1;fillColor=#e1d5e7;strokeColor=#9673a6;" vertex="1" parent="jRZZL-ALYdKYucV2etd6-269">
          <mxGeometry x="547.2972972972973" y="284.0686274509804" width="82.09459459459458" height="46.568627450980394" as="geometry" />
        </mxCell>
        <mxCell id="jRZZL-ALYdKYucV2etd6-182" value="0.5" style="rounded=0;whiteSpace=wrap;html=1;fillColor=#d5e8d4;strokeColor=#82b366;" vertex="1" parent="jRZZL-ALYdKYucV2etd6-269">
          <mxGeometry x="629.391891891892" y="284.0686274509804" width="82.09459459459458" height="46.568627450980394" as="geometry" />
        </mxCell>
        <mxCell id="jRZZL-ALYdKYucV2etd6-183" value="-0.25" style="rounded=0;whiteSpace=wrap;html=1;fillColor=#e1d5e7;strokeColor=#9673a6;" vertex="1" parent="jRZZL-ALYdKYucV2etd6-269">
          <mxGeometry x="711.4864864864865" y="284.0686274509804" width="82.09459459459458" height="46.568627450980394" as="geometry" />
        </mxCell>
        <mxCell id="jRZZL-ALYdKYucV2etd6-184" value="" style="endArrow=classic;html=1;rounded=0;fontSize=20;fontStyle=1;" edge="1" parent="jRZZL-ALYdKYucV2etd6-269">
          <mxGeometry width="50" height="50" relative="1" as="geometry">
            <mxPoint x="839.1891891891892" y="262.64705882352945" as="sourcePoint" />
            <mxPoint x="930.4054054054054" y="262.64705882352945" as="targetPoint" />
          </mxGeometry>
        </mxCell>
        <mxCell id="jRZZL-ALYdKYucV2etd6-185" value="Prediction Errors" style="text;html=1;strokeColor=none;fillColor=none;align=center;verticalAlign=middle;whiteSpace=wrap;rounded=0;fontSize=12;fontStyle=1;" vertex="1" parent="jRZZL-ALYdKYucV2etd6-269">
          <mxGeometry x="985.1351351351352" y="111.76470588235293" width="218.91891891891893" height="37.25490196078431" as="geometry" />
        </mxCell>
        <mxCell id="jRZZL-ALYdKYucV2etd6-186" value="-43.2" style="rounded=0;whiteSpace=wrap;html=1;fillColor=#ffcccc;strokeColor=#000000;fontStyle=1;" vertex="1" parent="jRZZL-ALYdKYucV2etd6-269">
          <mxGeometry x="985.1351351351352" y="167.64705882352942" width="91.21621621621621" height="46.568627450980394" as="geometry" />
        </mxCell>
        <mxCell id="jRZZL-ALYdKYucV2etd6-187" value="+67.8" style="rounded=0;whiteSpace=wrap;html=1;fillColor=#ccffcc;strokeColor=#000000;fontStyle=1;" vertex="1" parent="jRZZL-ALYdKYucV2etd6-269">
          <mxGeometry x="1076.3513513513515" y="167.64705882352942" width="91.21621621621621" height="46.568627450980394" as="geometry" />
        </mxCell>
        <mxCell id="jRZZL-ALYdKYucV2etd6-188" value="+15.1" style="rounded=0;whiteSpace=wrap;html=1;fillColor=#ccffcc;strokeColor=#000000;fontStyle=1;" vertex="1" parent="jRZZL-ALYdKYucV2etd6-269">
          <mxGeometry x="1167.5675675675677" y="167.64705882352942" width="91.21621621621621" height="46.568627450980394" as="geometry" />
        </mxCell>
        <mxCell id="jRZZL-ALYdKYucV2etd6-189" value="-29.7" style="rounded=0;whiteSpace=wrap;html=1;fillColor=#ffcccc;strokeColor=#000000;fontStyle=1;" vertex="1" parent="jRZZL-ALYdKYucV2etd6-269">
          <mxGeometry x="1258.783783783784" y="167.64705882352942" width="91.21621621621621" height="46.568627450980394" as="geometry" />
        </mxCell>
        <mxCell id="jRZZL-ALYdKYucV2etd6-190" value="+52.4" style="rounded=0;whiteSpace=wrap;html=1;fillColor=#ccffcc;strokeColor=#000000;fontStyle=1;" vertex="1" parent="jRZZL-ALYdKYucV2etd6-269">
          <mxGeometry x="985.1351351351352" y="214.21568627450978" width="91.21621621621621" height="46.568627450980394" as="geometry" />
        </mxCell>
        <mxCell id="jRZZL-ALYdKYucV2etd6-191" value="+81.9" style="rounded=0;whiteSpace=wrap;html=1;fillColor=#ccffcc;strokeColor=#000000;fontStyle=1;" vertex="1" parent="jRZZL-ALYdKYucV2etd6-269">
          <mxGeometry x="1076.3513513513515" y="214.21568627450978" width="91.21621621621621" height="46.568627450980394" as="geometry" />
        </mxCell>
        <mxCell id="jRZZL-ALYdKYucV2etd6-192" value="-68.5" style="rounded=0;whiteSpace=wrap;html=1;fillColor=#ffcccc;strokeColor=#000000;fontStyle=1;" vertex="1" parent="jRZZL-ALYdKYucV2etd6-269">
          <mxGeometry x="1167.5675675675677" y="214.21568627450978" width="91.21621621621621" height="46.568627450980394" as="geometry" />
        </mxCell>
        <mxCell id="jRZZL-ALYdKYucV2etd6-193" value="+37.2" style="rounded=0;whiteSpace=wrap;html=1;fillColor=#ccffcc;strokeColor=#000000;fontStyle=1;" vertex="1" parent="jRZZL-ALYdKYucV2etd6-269">
          <mxGeometry x="1258.783783783784" y="214.21568627450978" width="91.21621621621621" height="46.568627450980394" as="geometry" />
        </mxCell>
        <mxCell id="jRZZL-ALYdKYucV2etd6-194" value="+24.6" style="rounded=0;whiteSpace=wrap;html=1;fillColor=#ccffcc;strokeColor=#000000;fontStyle=1;" vertex="1" parent="jRZZL-ALYdKYucV2etd6-269">
          <mxGeometry x="985.1351351351352" y="260.78431372549016" width="91.21621621621621" height="46.568627450980394" as="geometry" />
        </mxCell>
        <mxCell id="jRZZL-ALYdKYucV2etd6-195" value="-38.1" style="rounded=0;whiteSpace=wrap;html=1;fillColor=#ffcccc;strokeColor=#000000;fontStyle=1;" vertex="1" parent="jRZZL-ALYdKYucV2etd6-269">
          <mxGeometry x="1076.3513513513515" y="260.78431372549016" width="91.21621621621621" height="46.568627450980394" as="geometry" />
        </mxCell>
        <mxCell id="jRZZL-ALYdKYucV2etd6-196" value="+72.3" style="rounded=0;whiteSpace=wrap;html=1;fillColor=#ccffcc;strokeColor=#000000;fontStyle=1;" vertex="1" parent="jRZZL-ALYdKYucV2etd6-269">
          <mxGeometry x="1167.5675675675677" y="260.78431372549016" width="91.21621621621621" height="46.568627450980394" as="geometry" />
        </mxCell>
        <mxCell id="jRZZL-ALYdKYucV2etd6-197" value="-59.8" style="rounded=0;whiteSpace=wrap;html=1;fillColor=#ffcccc;strokeColor=#000000;fontStyle=1;" vertex="1" parent="jRZZL-ALYdKYucV2etd6-269">
          <mxGeometry x="1258.783783783784" y="260.78431372549016" width="91.21621621621621" height="46.568627450980394" as="geometry" />
        </mxCell>
        <mxCell id="jRZZL-ALYdKYucV2etd6-198" value="-41.7" style="rounded=0;whiteSpace=wrap;html=1;fillColor=#ffcccc;strokeColor=#000000;fontStyle=1;" vertex="1" parent="jRZZL-ALYdKYucV2etd6-269">
          <mxGeometry x="985.1351351351352" y="307.35294117647055" width="91.21621621621621" height="46.568627450980394" as="geometry" />
        </mxCell>
        <mxCell id="jRZZL-ALYdKYucV2etd6-199" value="+19.5" style="rounded=0;whiteSpace=wrap;html=1;fillColor=#ccffcc;strokeColor=#000000;fontStyle=1;" vertex="1" parent="jRZZL-ALYdKYucV2etd6-269">
          <mxGeometry x="1076.3513513513515" y="307.35294117647055" width="91.21621621621621" height="46.568627450980394" as="geometry" />
        </mxCell>
        <mxCell id="jRZZL-ALYdKYucV2etd6-200" value="+48.2" style="rounded=0;whiteSpace=wrap;html=1;fillColor=#ccffcc;strokeColor=#000000;fontStyle=1;" vertex="1" parent="jRZZL-ALYdKYucV2etd6-269">
          <mxGeometry x="1167.5675675675677" y="307.35294117647055" width="91.21621621621621" height="46.568627450980394" as="geometry" />
        </mxCell>
        <mxCell id="jRZZL-ALYdKYucV2etd6-201" value="-35.4" style="rounded=0;whiteSpace=wrap;html=1;fillColor=#ffcccc;strokeColor=#000000;fontStyle=1;" vertex="1" parent="jRZZL-ALYdKYucV2etd6-269">
          <mxGeometry x="1258.783783783784" y="307.35294117647055" width="91.21621621621621" height="46.568627450980394" as="geometry" />
        </mxCell>
        <mxCell id="jRZZL-ALYdKYucV2etd6-203" value="RESAMPLED IMAGE (Linear Interpolation)" style="text;html=1;strokeColor=none;fillColor=#d5e8d4;align=center;verticalAlign=middle;whiteSpace=wrap;rounded=1;fontSize=14;fontStyle=1;strokeWidth=2;" vertex="1" parent="jRZZL-ALYdKYucV2etd6-269">
          <mxGeometry y="521.5686274509803" width="638.5135135135135" height="55.882352941176464" as="geometry" />
        </mxCell>
        <mxCell id="jRZZL-ALYdKYucV2etd6-204" value="100" style="rounded=0;whiteSpace=wrap;html=1;fillColor=#f8cecc;strokeColor=#b85450;" vertex="1" parent="jRZZL-ALYdKYucV2etd6-269">
          <mxGeometry y="614.7058823529411" width="72.97297297297298" height="55.882352941176464" as="geometry" />
        </mxCell>
        <mxCell id="jRZZL-ALYdKYucV2etd6-205" value="110" style="rounded=0;whiteSpace=wrap;html=1;fillColor=#f8cecc;strokeColor=#b85450;" vertex="1" parent="jRZZL-ALYdKYucV2etd6-269">
          <mxGeometry x="72.97297297297298" y="614.7058823529411" width="72.97297297297298" height="55.882352941176464" as="geometry" />
        </mxCell>
        <mxCell id="jRZZL-ALYdKYucV2etd6-206" value="120" style="rounded=0;whiteSpace=wrap;html=1;fillColor=#f8cecc;strokeColor=#b85450;" vertex="1" parent="jRZZL-ALYdKYucV2etd6-269">
          <mxGeometry x="145.94594594594597" y="614.7058823529411" width="72.97297297297298" height="55.882352941176464" as="geometry" />
        </mxCell>
        <mxCell id="jRZZL-ALYdKYucV2etd6-207" value="130" style="rounded=0;whiteSpace=wrap;html=1;fillColor=#f8cecc;strokeColor=#b85450;" vertex="1" parent="jRZZL-ALYdKYucV2etd6-269">
          <mxGeometry x="218.91891891891893" y="614.7058823529411" width="72.97297297297298" height="55.882352941176464" as="geometry" />
        </mxCell>
        <mxCell id="jRZZL-ALYdKYucV2etd6-208" value="140" style="rounded=0;whiteSpace=wrap;html=1;fillColor=#f8cecc;strokeColor=#b85450;" vertex="1" parent="jRZZL-ALYdKYucV2etd6-269">
          <mxGeometry x="291.89189189189193" y="614.7058823529411" width="72.97297297297298" height="55.882352941176464" as="geometry" />
        </mxCell>
        <mxCell id="jRZZL-ALYdKYucV2etd6-209" value="150" style="rounded=0;whiteSpace=wrap;html=1;fillColor=#f8cecc;strokeColor=#b85450;" vertex="1" parent="jRZZL-ALYdKYucV2etd6-269">
          <mxGeometry x="364.86486486486484" y="614.7058823529411" width="72.97297297297298" height="55.882352941176464" as="geometry" />
        </mxCell>
        <mxCell id="jRZZL-ALYdKYucV2etd6-210" value="105" style="rounded=0;whiteSpace=wrap;html=1;fillColor=#f8cecc;strokeColor=#b85450;align=center;verticalAlign=middle;fontFamily=Helvetica;fontSize=12;fontColor=default;" vertex="1" parent="jRZZL-ALYdKYucV2etd6-269">
          <mxGeometry y="670.5882352941177" width="72.97297297297298" height="55.882352941176464" as="geometry" />
        </mxCell>
        <mxCell id="jRZZL-ALYdKYucV2etd6-211" value="115" style="rounded=0;whiteSpace=wrap;html=1;fillColor=#ffffff;strokeColor=#000000;fontStyle=1;" vertex="1" parent="jRZZL-ALYdKYucV2etd6-269">
          <mxGeometry x="72.97297297297298" y="670.5882352941177" width="72.97297297297298" height="55.882352941176464" as="geometry" />
        </mxCell>
        <mxCell id="jRZZL-ALYdKYucV2etd6-212" value="125" style="rounded=0;whiteSpace=wrap;html=1;fillColor=#ffffff;strokeColor=#000000;fontStyle=1;" vertex="1" parent="jRZZL-ALYdKYucV2etd6-269">
          <mxGeometry x="145.94594594594597" y="670.5882352941177" width="72.97297297297298" height="55.882352941176464" as="geometry" />
        </mxCell>
        <mxCell id="jRZZL-ALYdKYucV2etd6-213" value="135" style="rounded=0;whiteSpace=wrap;html=1;fillColor=#ffffff;strokeColor=#000000;fontStyle=1;" vertex="1" parent="jRZZL-ALYdKYucV2etd6-269">
          <mxGeometry x="218.91891891891893" y="670.5882352941177" width="72.97297297297298" height="55.882352941176464" as="geometry" />
        </mxCell>
        <mxCell id="jRZZL-ALYdKYucV2etd6-214" value="145" style="rounded=0;whiteSpace=wrap;html=1;fillColor=#ffffff;strokeColor=#000000;fontStyle=1;" vertex="1" parent="jRZZL-ALYdKYucV2etd6-269">
          <mxGeometry x="291.89189189189193" y="670.5882352941177" width="72.97297297297298" height="55.882352941176464" as="geometry" />
        </mxCell>
        <mxCell id="jRZZL-ALYdKYucV2etd6-215" value="155" style="rounded=0;whiteSpace=wrap;html=1;fillColor=#f8cecc;strokeColor=#b85450;align=center;verticalAlign=middle;fontFamily=Helvetica;fontSize=12;fontColor=default;" vertex="1" parent="jRZZL-ALYdKYucV2etd6-269">
          <mxGeometry x="364.86486486486484" y="670.5882352941177" width="72.97297297297298" height="55.882352941176464" as="geometry" />
        </mxCell>
        <mxCell id="jRZZL-ALYdKYucV2etd6-216" value="110" style="rounded=0;whiteSpace=wrap;html=1;fillColor=#f8cecc;strokeColor=#b85450;align=center;verticalAlign=middle;fontFamily=Helvetica;fontSize=12;fontColor=default;" vertex="1" parent="jRZZL-ALYdKYucV2etd6-269">
          <mxGeometry y="726.4705882352941" width="72.97297297297298" height="55.882352941176464" as="geometry" />
        </mxCell>
        <mxCell id="jRZZL-ALYdKYucV2etd6-217" value="120" style="rounded=0;whiteSpace=wrap;html=1;fillColor=#ffffff;strokeColor=#000000;fontStyle=1;" vertex="1" parent="jRZZL-ALYdKYucV2etd6-269">
          <mxGeometry x="72.97297297297298" y="726.4705882352941" width="72.97297297297298" height="55.882352941176464" as="geometry" />
        </mxCell>
        <mxCell id="jRZZL-ALYdKYucV2etd6-218" value="130" style="rounded=0;whiteSpace=wrap;html=1;fillColor=#ffffff;strokeColor=#000000;fontStyle=1;" vertex="1" parent="jRZZL-ALYdKYucV2etd6-269">
          <mxGeometry x="145.94594594594597" y="726.4705882352941" width="72.97297297297298" height="55.882352941176464" as="geometry" />
        </mxCell>
        <mxCell id="jRZZL-ALYdKYucV2etd6-219" value="140" style="rounded=0;whiteSpace=wrap;html=1;fillColor=#ffffff;strokeColor=#000000;fontStyle=1;" vertex="1" parent="jRZZL-ALYdKYucV2etd6-269">
          <mxGeometry x="218.91891891891893" y="726.4705882352941" width="72.97297297297298" height="55.882352941176464" as="geometry" />
        </mxCell>
        <mxCell id="jRZZL-ALYdKYucV2etd6-220" value="150" style="rounded=0;whiteSpace=wrap;html=1;fillColor=#ffffff;strokeColor=#000000;fontStyle=1;" vertex="1" parent="jRZZL-ALYdKYucV2etd6-269">
          <mxGeometry x="291.89189189189193" y="726.4705882352941" width="72.97297297297298" height="55.882352941176464" as="geometry" />
        </mxCell>
        <mxCell id="jRZZL-ALYdKYucV2etd6-221" value="160" style="rounded=0;whiteSpace=wrap;html=1;fillColor=#f8cecc;strokeColor=#b85450;align=center;verticalAlign=middle;fontFamily=Helvetica;fontSize=12;fontColor=default;" vertex="1" parent="jRZZL-ALYdKYucV2etd6-269">
          <mxGeometry x="364.86486486486484" y="726.4705882352941" width="72.97297297297298" height="55.882352941176464" as="geometry" />
        </mxCell>
        <mxCell id="jRZZL-ALYdKYucV2etd6-222" value="115" style="rounded=0;whiteSpace=wrap;html=1;fillColor=#f8cecc;strokeColor=#b85450;align=center;verticalAlign=middle;fontFamily=Helvetica;fontSize=12;fontColor=default;" vertex="1" parent="jRZZL-ALYdKYucV2etd6-269">
          <mxGeometry y="782.3529411764706" width="72.97297297297298" height="55.882352941176464" as="geometry" />
        </mxCell>
        <mxCell id="jRZZL-ALYdKYucV2etd6-223" value="125" style="rounded=0;whiteSpace=wrap;html=1;fillColor=#ffffff;strokeColor=#000000;fontStyle=1;" vertex="1" parent="jRZZL-ALYdKYucV2etd6-269">
          <mxGeometry x="72.97297297297298" y="782.3529411764706" width="72.97297297297298" height="55.882352941176464" as="geometry" />
        </mxCell>
        <mxCell id="jRZZL-ALYdKYucV2etd6-224" value="135" style="rounded=0;whiteSpace=wrap;html=1;fillColor=#ffffff;strokeColor=#000000;fontStyle=1;" vertex="1" parent="jRZZL-ALYdKYucV2etd6-269">
          <mxGeometry x="145.94594594594597" y="782.3529411764706" width="72.97297297297298" height="55.882352941176464" as="geometry" />
        </mxCell>
        <mxCell id="jRZZL-ALYdKYucV2etd6-225" value="145" style="rounded=0;whiteSpace=wrap;html=1;fillColor=#ffffff;strokeColor=#000000;fontStyle=1;" vertex="1" parent="jRZZL-ALYdKYucV2etd6-269">
          <mxGeometry x="218.91891891891893" y="782.3529411764706" width="72.97297297297298" height="55.882352941176464" as="geometry" />
        </mxCell>
        <mxCell id="jRZZL-ALYdKYucV2etd6-226" value="155" style="rounded=0;whiteSpace=wrap;html=1;fillColor=#ffffff;strokeColor=#000000;fontStyle=1;" vertex="1" parent="jRZZL-ALYdKYucV2etd6-269">
          <mxGeometry x="291.89189189189193" y="782.3529411764706" width="72.97297297297298" height="55.882352941176464" as="geometry" />
        </mxCell>
        <mxCell id="jRZZL-ALYdKYucV2etd6-227" value="165" style="rounded=0;whiteSpace=wrap;html=1;fillColor=#f8cecc;strokeColor=#b85450;align=center;verticalAlign=middle;fontFamily=Helvetica;fontSize=12;fontColor=default;" vertex="1" parent="jRZZL-ALYdKYucV2etd6-269">
          <mxGeometry x="364.86486486486484" y="782.3529411764706" width="72.97297297297298" height="55.882352941176464" as="geometry" />
        </mxCell>
        <mxCell id="jRZZL-ALYdKYucV2etd6-228" value="120" style="rounded=0;whiteSpace=wrap;html=1;fillColor=#f8cecc;strokeColor=#b85450;align=center;verticalAlign=middle;fontFamily=Helvetica;fontSize=12;fontColor=default;" vertex="1" parent="jRZZL-ALYdKYucV2etd6-269">
          <mxGeometry y="838.2352941176471" width="72.97297297297298" height="55.882352941176464" as="geometry" />
        </mxCell>
        <mxCell id="jRZZL-ALYdKYucV2etd6-229" value="130" style="rounded=0;whiteSpace=wrap;html=1;fillColor=#ffffff;strokeColor=#000000;fontStyle=1;" vertex="1" parent="jRZZL-ALYdKYucV2etd6-269">
          <mxGeometry x="72.97297297297298" y="838.2352941176471" width="72.97297297297298" height="55.882352941176464" as="geometry" />
        </mxCell>
        <mxCell id="jRZZL-ALYdKYucV2etd6-230" value="140" style="rounded=0;whiteSpace=wrap;html=1;fillColor=#ffffff;strokeColor=#000000;fontStyle=1;" vertex="1" parent="jRZZL-ALYdKYucV2etd6-269">
          <mxGeometry x="145.94594594594597" y="838.2352941176471" width="72.97297297297298" height="55.882352941176464" as="geometry" />
        </mxCell>
        <mxCell id="jRZZL-ALYdKYucV2etd6-231" value="150" style="rounded=0;whiteSpace=wrap;html=1;fillColor=#ffffff;strokeColor=#000000;fontStyle=1;" vertex="1" parent="jRZZL-ALYdKYucV2etd6-269">
          <mxGeometry x="218.91891891891893" y="838.2352941176471" width="72.97297297297298" height="55.882352941176464" as="geometry" />
        </mxCell>
        <mxCell id="jRZZL-ALYdKYucV2etd6-232" value="160" style="rounded=0;whiteSpace=wrap;html=1;fillColor=#ffffff;strokeColor=#000000;fontStyle=1;" vertex="1" parent="jRZZL-ALYdKYucV2etd6-269">
          <mxGeometry x="291.89189189189193" y="838.2352941176471" width="72.97297297297298" height="55.882352941176464" as="geometry" />
        </mxCell>
        <mxCell id="jRZZL-ALYdKYucV2etd6-233" value="170" style="rounded=0;whiteSpace=wrap;html=1;fillColor=#f8cecc;strokeColor=#b85450;align=center;verticalAlign=middle;fontFamily=Helvetica;fontSize=12;fontColor=default;" vertex="1" parent="jRZZL-ALYdKYucV2etd6-269">
          <mxGeometry x="364.86486486486484" y="838.2352941176471" width="72.97297297297298" height="55.882352941176464" as="geometry" />
        </mxCell>
        <mxCell id="jRZZL-ALYdKYucV2etd6-234" value="125" style="rounded=0;whiteSpace=wrap;html=1;fillColor=#f8cecc;strokeColor=#b85450;" vertex="1" parent="jRZZL-ALYdKYucV2etd6-269">
          <mxGeometry y="894.1176470588234" width="72.97297297297298" height="55.882352941176464" as="geometry" />
        </mxCell>
        <mxCell id="jRZZL-ALYdKYucV2etd6-235" value="135" style="rounded=0;whiteSpace=wrap;html=1;fillColor=#f8cecc;strokeColor=#b85450;" vertex="1" parent="jRZZL-ALYdKYucV2etd6-269">
          <mxGeometry x="72.97297297297298" y="894.1176470588234" width="72.97297297297298" height="55.882352941176464" as="geometry" />
        </mxCell>
        <mxCell id="jRZZL-ALYdKYucV2etd6-236" value="145" style="rounded=0;whiteSpace=wrap;html=1;fillColor=#f8cecc;strokeColor=#b85450;" vertex="1" parent="jRZZL-ALYdKYucV2etd6-269">
          <mxGeometry x="145.94594594594597" y="894.1176470588234" width="72.97297297297298" height="55.882352941176464" as="geometry" />
        </mxCell>
        <mxCell id="jRZZL-ALYdKYucV2etd6-237" value="155" style="rounded=0;whiteSpace=wrap;html=1;fillColor=#f8cecc;strokeColor=#b85450;" vertex="1" parent="jRZZL-ALYdKYucV2etd6-269">
          <mxGeometry x="218.91891891891893" y="894.1176470588234" width="72.97297297297298" height="55.882352941176464" as="geometry" />
        </mxCell>
        <mxCell id="jRZZL-ALYdKYucV2etd6-238" value="165" style="rounded=0;whiteSpace=wrap;html=1;fillColor=#f8cecc;strokeColor=#b85450;" vertex="1" parent="jRZZL-ALYdKYucV2etd6-269">
          <mxGeometry x="291.89189189189193" y="894.1176470588234" width="72.97297297297298" height="55.882352941176464" as="geometry" />
        </mxCell>
        <mxCell id="jRZZL-ALYdKYucV2etd6-239" value="175" style="rounded=0;whiteSpace=wrap;html=1;fillColor=#f8cecc;strokeColor=#b85450;" vertex="1" parent="jRZZL-ALYdKYucV2etd6-269">
          <mxGeometry x="364.86486486486484" y="894.1176470588234" width="72.97297297297298" height="55.882352941176464" as="geometry" />
        </mxCell>
        <mxCell id="jRZZL-ALYdKYucV2etd6-240" value="Kirchner Filter" style="text;html=1;strokeColor=none;fillColor=none;align=center;verticalAlign=middle;whiteSpace=wrap;rounded=0;fontSize=12;fontStyle=1;" vertex="1" parent="jRZZL-ALYdKYucV2etd6-269">
          <mxGeometry x="547.2972972972973" y="651.9607843137255" width="182.43243243243242" height="37.25490196078431" as="geometry" />
        </mxCell>
        <mxCell id="jRZZL-ALYdKYucV2etd6-241" value="-0.25" style="rounded=0;whiteSpace=wrap;html=1;fillColor=#e1d5e7;strokeColor=#9673a6;" vertex="1" parent="jRZZL-ALYdKYucV2etd6-269">
          <mxGeometry x="547.2972972972973" y="712.5" width="82.09459459459458" height="46.568627450980394" as="geometry" />
        </mxCell>
        <mxCell id="jRZZL-ALYdKYucV2etd6-242" value="0.5" style="rounded=0;whiteSpace=wrap;html=1;fillColor=#d5e8d4;strokeColor=#82b366;" vertex="1" parent="jRZZL-ALYdKYucV2etd6-269">
          <mxGeometry x="629.391891891892" y="712.5" width="82.09459459459458" height="46.568627450980394" as="geometry" />
        </mxCell>
        <mxCell id="jRZZL-ALYdKYucV2etd6-243" value="-0.25" style="rounded=0;whiteSpace=wrap;html=1;fillColor=#e1d5e7;strokeColor=#9673a6;" vertex="1" parent="jRZZL-ALYdKYucV2etd6-269">
          <mxGeometry x="711.4864864864865" y="712.5" width="82.09459459459458" height="46.568627450980394" as="geometry" />
        </mxCell>
        <mxCell id="jRZZL-ALYdKYucV2etd6-244" value="0.5" style="rounded=0;whiteSpace=wrap;html=1;fillColor=#d5e8d4;strokeColor=#82b366;" vertex="1" parent="jRZZL-ALYdKYucV2etd6-269">
          <mxGeometry x="547.2972972972973" y="759.0686274509804" width="82.09459459459458" height="46.568627450980394" as="geometry" />
        </mxCell>
        <mxCell id="jRZZL-ALYdKYucV2etd6-245" value="0" style="rounded=0;whiteSpace=wrap;html=1;fillColor=#f8cecc;strokeColor=#b85450;fontStyle=1;" vertex="1" parent="jRZZL-ALYdKYucV2etd6-269">
          <mxGeometry x="629.391891891892" y="759.0686274509804" width="82.09459459459458" height="46.568627450980394" as="geometry" />
        </mxCell>
        <mxCell id="jRZZL-ALYdKYucV2etd6-246" value="0.5" style="rounded=0;whiteSpace=wrap;html=1;fillColor=#d5e8d4;strokeColor=#82b366;" vertex="1" parent="jRZZL-ALYdKYucV2etd6-269">
          <mxGeometry x="711.4864864864865" y="759.0686274509804" width="82.09459459459458" height="46.568627450980394" as="geometry" />
        </mxCell>
        <mxCell id="jRZZL-ALYdKYucV2etd6-247" value="-0.25" style="rounded=0;whiteSpace=wrap;html=1;fillColor=#e1d5e7;strokeColor=#9673a6;" vertex="1" parent="jRZZL-ALYdKYucV2etd6-269">
          <mxGeometry x="547.2972972972973" y="805.6372549019608" width="82.09459459459458" height="46.568627450980394" as="geometry" />
        </mxCell>
        <mxCell id="jRZZL-ALYdKYucV2etd6-248" value="0.5" style="rounded=0;whiteSpace=wrap;html=1;fillColor=#d5e8d4;strokeColor=#82b366;" vertex="1" parent="jRZZL-ALYdKYucV2etd6-269">
          <mxGeometry x="629.391891891892" y="805.6372549019608" width="82.09459459459458" height="46.568627450980394" as="geometry" />
        </mxCell>
        <mxCell id="jRZZL-ALYdKYucV2etd6-249" value="-0.25" style="rounded=0;whiteSpace=wrap;html=1;fillColor=#e1d5e7;strokeColor=#9673a6;" vertex="1" parent="jRZZL-ALYdKYucV2etd6-269">
          <mxGeometry x="711.4864864864865" y="805.6372549019608" width="82.09459459459458" height="46.568627450980394" as="geometry" />
        </mxCell>
        <mxCell id="jRZZL-ALYdKYucV2etd6-250" value="" style="endArrow=classic;html=1;rounded=0;fontSize=20;fontStyle=1;" edge="1" parent="jRZZL-ALYdKYucV2etd6-269">
          <mxGeometry width="50" height="50" relative="1" as="geometry">
            <mxPoint x="839.1891891891892" y="782.3529411764706" as="sourcePoint" />
            <mxPoint x="930.4054054054054" y="782.3529411764706" as="targetPoint" />
          </mxGeometry>
        </mxCell>
        <mxCell id="jRZZL-ALYdKYucV2etd6-251" value="Prediction Errors" style="text;html=1;strokeColor=none;fillColor=none;align=center;verticalAlign=middle;whiteSpace=wrap;rounded=0;fontSize=12;fontStyle=1;" vertex="1" parent="jRZZL-ALYdKYucV2etd6-269">
          <mxGeometry x="985.1351351351352" y="633.3333333333334" width="218.91891891891893" height="37.25490196078431" as="geometry" />
        </mxCell>
        <mxCell id="jRZZL-ALYdKYucV2etd6-252" value="0.0" style="rounded=0;whiteSpace=wrap;html=1;fillColor=#e6ffe6;strokeColor=#000000;fontStyle=1;" vertex="1" parent="jRZZL-ALYdKYucV2etd6-269">
          <mxGeometry x="985.1351351351352" y="689.2156862745098" width="91.21621621621621" height="46.568627450980394" as="geometry" />
        </mxCell>
        <mxCell id="jRZZL-ALYdKYucV2etd6-253" value="0.0" style="rounded=0;whiteSpace=wrap;html=1;fillColor=#e6ffe6;strokeColor=#000000;fontStyle=1;" vertex="1" parent="jRZZL-ALYdKYucV2etd6-269">
          <mxGeometry x="1076.3513513513515" y="689.2156862745098" width="91.21621621621621" height="46.568627450980394" as="geometry" />
        </mxCell>
        <mxCell id="jRZZL-ALYdKYucV2etd6-254" value="0.0" style="rounded=0;whiteSpace=wrap;html=1;fillColor=#e6ffe6;strokeColor=#000000;fontStyle=1;" vertex="1" parent="jRZZL-ALYdKYucV2etd6-269">
          <mxGeometry x="1167.5675675675677" y="689.2156862745098" width="91.21621621621621" height="46.568627450980394" as="geometry" />
        </mxCell>
        <mxCell id="jRZZL-ALYdKYucV2etd6-255" value="0.0" style="rounded=0;whiteSpace=wrap;html=1;fillColor=#e6ffe6;strokeColor=#000000;fontStyle=1;" vertex="1" parent="jRZZL-ALYdKYucV2etd6-269">
          <mxGeometry x="1258.783783783784" y="689.2156862745098" width="91.21621621621621" height="46.568627450980394" as="geometry" />
        </mxCell>
        <mxCell id="jRZZL-ALYdKYucV2etd6-256" value="0.0" style="rounded=0;whiteSpace=wrap;html=1;fillColor=#e6ffe6;strokeColor=#000000;fontStyle=1;" vertex="1" parent="jRZZL-ALYdKYucV2etd6-269">
          <mxGeometry x="985.1351351351352" y="735.7843137254902" width="91.21621621621621" height="46.568627450980394" as="geometry" />
        </mxCell>
        <mxCell id="jRZZL-ALYdKYucV2etd6-257" value="0.0" style="rounded=0;whiteSpace=wrap;html=1;fillColor=#e6ffe6;strokeColor=#000000;fontStyle=1;" vertex="1" parent="jRZZL-ALYdKYucV2etd6-269">
          <mxGeometry x="1076.3513513513515" y="735.7843137254902" width="91.21621621621621" height="46.568627450980394" as="geometry" />
        </mxCell>
        <mxCell id="jRZZL-ALYdKYucV2etd6-258" value="0.0" style="rounded=0;whiteSpace=wrap;html=1;fillColor=#e6ffe6;strokeColor=#000000;fontStyle=1;" vertex="1" parent="jRZZL-ALYdKYucV2etd6-269">
          <mxGeometry x="1167.5675675675677" y="735.7843137254902" width="91.21621621621621" height="46.568627450980394" as="geometry" />
        </mxCell>
        <mxCell id="jRZZL-ALYdKYucV2etd6-259" value="0.0" style="rounded=0;whiteSpace=wrap;html=1;fillColor=#e6ffe6;strokeColor=#000000;fontStyle=1;" vertex="1" parent="jRZZL-ALYdKYucV2etd6-269">
          <mxGeometry x="1258.783783783784" y="735.7843137254902" width="91.21621621621621" height="46.568627450980394" as="geometry" />
        </mxCell>
        <mxCell id="jRZZL-ALYdKYucV2etd6-260" value="0.0" style="rounded=0;whiteSpace=wrap;html=1;fillColor=#e6ffe6;strokeColor=#000000;fontStyle=1;" vertex="1" parent="jRZZL-ALYdKYucV2etd6-269">
          <mxGeometry x="985.1351351351352" y="782.3529411764706" width="91.21621621621621" height="46.568627450980394" as="geometry" />
        </mxCell>
        <mxCell id="jRZZL-ALYdKYucV2etd6-261" value="0.0" style="rounded=0;whiteSpace=wrap;html=1;fillColor=#e6ffe6;strokeColor=#000000;fontStyle=1;" vertex="1" parent="jRZZL-ALYdKYucV2etd6-269">
          <mxGeometry x="1076.3513513513515" y="782.3529411764706" width="91.21621621621621" height="46.568627450980394" as="geometry" />
        </mxCell>
        <mxCell id="jRZZL-ALYdKYucV2etd6-262" value="0.0" style="rounded=0;whiteSpace=wrap;html=1;fillColor=#e6ffe6;strokeColor=#000000;fontStyle=1;" vertex="1" parent="jRZZL-ALYdKYucV2etd6-269">
          <mxGeometry x="1167.5675675675677" y="782.3529411764706" width="91.21621621621621" height="46.568627450980394" as="geometry" />
        </mxCell>
        <mxCell id="jRZZL-ALYdKYucV2etd6-263" value="0.0" style="rounded=0;whiteSpace=wrap;html=1;fillColor=#e6ffe6;strokeColor=#000000;fontStyle=1;" vertex="1" parent="jRZZL-ALYdKYucV2etd6-269">
          <mxGeometry x="1258.783783783784" y="782.3529411764706" width="91.21621621621621" height="46.568627450980394" as="geometry" />
        </mxCell>
        <mxCell id="jRZZL-ALYdKYucV2etd6-264" value="0.0" style="rounded=0;whiteSpace=wrap;html=1;fillColor=#e6ffe6;strokeColor=#000000;fontStyle=1;" vertex="1" parent="jRZZL-ALYdKYucV2etd6-269">
          <mxGeometry x="985.1351351351352" y="828.9215686274509" width="91.21621621621621" height="46.568627450980394" as="geometry" />
        </mxCell>
        <mxCell id="jRZZL-ALYdKYucV2etd6-265" value="0.0" style="rounded=0;whiteSpace=wrap;html=1;fillColor=#e6ffe6;strokeColor=#000000;fontStyle=1;" vertex="1" parent="jRZZL-ALYdKYucV2etd6-269">
          <mxGeometry x="1076.3513513513515" y="828.9215686274509" width="91.21621621621621" height="46.568627450980394" as="geometry" />
        </mxCell>
        <mxCell id="jRZZL-ALYdKYucV2etd6-266" value="0.0" style="rounded=0;whiteSpace=wrap;html=1;fillColor=#e6ffe6;strokeColor=#000000;fontStyle=1;" vertex="1" parent="jRZZL-ALYdKYucV2etd6-269">
          <mxGeometry x="1167.5675675675677" y="828.9215686274509" width="91.21621621621621" height="46.568627450980394" as="geometry" />
        </mxCell>
        <mxCell id="jRZZL-ALYdKYucV2etd6-267" value="0.0" style="rounded=0;whiteSpace=wrap;html=1;fillColor=#e6ffe6;strokeColor=#000000;fontStyle=1;" vertex="1" parent="jRZZL-ALYdKYucV2etd6-269">
          <mxGeometry x="1258.783783783784" y="828.9215686274509" width="91.21621621621621" height="46.568627450980394" as="geometry" />
        </mxCell>
      </root>
    </mxGraphModel>
  </diagram>
</mxfile>
